<svg width="202" height="100" viewBox="0 0 202 100" fill="none" xmlns="http://www.w3.org/2000/svg">
    <g filter="url(#filter0_d_2_16)">
    <path d="M35.1035 56.3535C35.7188 57.1966 36.0264 58.4157 36.0264 60.0107C36.0264 61.6058 35.958 62.8818 35.8213 63.8389C35.6846 64.7731 35.4681 65.6276 35.1719 66.4023C34.4883 68.1341 33.5882 69 32.4717 69H4.78613C6.54069 68.0658 7.7028 67.1657 8.27246 66.2998C9.34342 64.682 9.87891 62.6312 9.87891 60.1475C9.85612 54.0635 9.84473 48.5605 9.84473 43.6387V25.6602C9.84473 22.265 9.30924 19.804 8.23828 18.2773C7.82812 17.7305 7.33822 17.2064 6.76855 16.7051H32.4717C34.0212 17.252 35.0807 19.166 35.6504 22.4473C35.8099 23.3587 35.8896 24.2474 35.8896 25.1133C35.8896 26.8906 35.6276 28.3034 35.1035 29.3516L33.2578 25.6602C32.0273 23.2448 30.2614 21.627 27.96 20.8066C26.6839 20.3509 25.2484 20.123 23.6533 20.123C22.0583 20.123 20.9189 20.18 20.2354 20.2939C19.5518 20.3851 19.0277 20.6243 18.6631 21.0117C18.0706 21.6725 17.7744 22.9372 17.7744 24.8057C17.7744 26.6514 17.82 27.9388 17.9111 28.668C18.0023 29.3743 18.2188 29.9554 18.5605 30.4111C19.2669 31.2998 20.7594 31.7441 23.0381 31.7441H33.7705C33.2464 33.0658 32.7109 34 32.1641 34.5469C31.0703 35.6406 29.5892 36.1875 27.7207 36.1875C26.9915 36.1875 26.2965 36.1077 25.6357 35.9482C24.4053 35.652 23.3229 35.5039 22.3887 35.5039C21.4544 35.5039 20.6797 35.5951 20.0645 35.7773C19.472 35.9368 19.0049 36.1989 18.6631 36.5635C18.0706 37.2015 17.7744 38.3522 17.7744 40.0156V56.3193C17.7744 60.6032 18.0137 63.1439 18.4922 63.9414C18.9707 64.7389 19.5518 65.2174 20.2354 65.377C20.9189 65.5137 22.0583 65.582 23.6533 65.582C25.2484 65.582 26.6953 65.3542 27.9941 64.8984C29.293 64.4427 30.3753 63.8047 31.2412 62.9844C32.1299 62.1641 32.859 61.1956 33.4287 60.0791C33.9984 58.9398 34.5566 57.6979 35.1035 56.3535ZM49.5957 16.7051C49.2083 17.9583 49.0146 19.1432 49.0146 20.2598C49.0146 22.151 49.3451 24.8854 50.0059 28.4629C52.7858 42.431 54.4036 50.4974 54.8594 52.6621C55.8164 57.1283 56.3975 59.8398 56.6025 60.7969C56.8304 61.7311 57.0355 62.6312 57.2178 63.4971C61.4561 58.4613 64.3841 51.5911 66.002 42.8867C66.5944 39.6966 66.8906 36.6888 66.8906 33.8633C66.8906 31.0378 66.8337 28.8503 66.7197 27.3008C66.6058 25.7513 66.4121 24.3385 66.1387 23.0625C65.5918 20.5104 64.7259 18.3799 63.541 16.6709H75.4697C74.9912 18.0381 74.7406 19.4053 74.7178 20.7725C74.695 22.1396 74.6494 24.2246 74.5811 27.0273C74.5127 29.8073 74.1595 33.1227 73.5215 36.9736C72.8835 40.8245 72.0859 44.2653 71.1289 47.2959C70.1719 50.3265 69.1123 52.9925 67.9502 55.2939C66.7881 57.5954 65.626 59.612 64.4639 61.3438C63.3018 63.0755 62.1966 64.5566 61.1484 65.7871L58.4824 69H47.7158C48.0576 68.1341 48.2285 67.291 48.2285 66.4707C48.2285 65.1263 48.0462 63.1553 47.6816 60.5576C43.7852 34.5355 40.4469 19.918 37.667 16.7051H49.5957ZM104.112 69C104.409 67.5645 104.557 66.4251 104.557 65.582C104.557 64.7161 104.534 64.0667 104.488 63.6338C104.465 63.2008 104.42 62.7451 104.352 62.2666C104.306 61.7653 104.238 61.2184 104.146 60.626C104.078 60.0107 104.01 59.3044 103.941 58.5068C103.417 53.0609 101.56 48.5833 98.3701 45.0742C96.9574 43.5247 95.4307 42.3512 93.79 41.5537C92.1494 40.7334 90.7936 40.3232 89.7227 40.3232C88.6745 40.3232 87.8656 40.3916 87.2959 40.5283C86.0199 44.3564 85.3818 48.3555 85.3818 52.5254C85.3818 56.2168 85.5755 58.974 85.9629 60.7969C86.5781 63.5312 87.5238 66.277 88.7998 69.0342H78.5801C79.127 67.667 79.4004 64.7959 79.4004 60.4209C79.4004 56.0231 79.7308 51.9215 80.3916 48.1162C81.0524 44.2881 81.9069 40.8815 82.9551 37.8965C84.026 34.9115 85.2109 32.3024 86.5098 30.0693C87.8314 27.8135 89.1416 25.8538 90.4404 24.1904C91.762 22.5042 93.0039 21.0687 94.166 19.8838C95.3281 18.6761 96.2965 17.6165 97.0713 16.7051H107.838C106.858 17.8216 106.368 19.3825 106.368 21.3877C106.368 22.2992 106.516 23.7917 106.812 25.8652L107.667 32.0859C110.789 53.5964 113.58 65.901 116.041 69H104.112ZM88.6973 36.9053C89.5859 36.5635 90.5202 36.3926 91.5 36.3926C92.4798 36.3926 93.3571 36.4609 94.1318 36.5977C94.9294 36.7344 95.7155 36.9622 96.4902 37.2812C98.1536 37.9193 99.5436 38.9333 100.66 40.3232C99.5436 34.4671 98.86 30.8896 98.6094 29.5908L97.4131 23.6094L95.4648 25.9336C92.7305 29.2148 90.4746 32.8721 88.6973 36.9053ZM128.312 31.7783C128.266 34.1481 128.243 36.8483 128.243 39.8789C128.243 44.1855 128.323 49.1188 128.482 54.6787C128.642 60.2158 128.767 63.3717 128.858 64.1465C128.95 64.8984 129.063 65.5592 129.2 66.1289C129.428 67.0632 129.781 68.0202 130.26 69H121.1C121.783 67.61 122.193 66.2542 122.33 64.9326C122.49 63.5882 122.615 62.2552 122.706 60.9336C122.888 58.2448 122.979 54.6331 122.979 50.0986C122.979 44.6071 122.888 39.5941 122.706 35.0596L122.33 25.6602C122.193 22.1966 121.646 19.7357 120.689 18.2773C120.302 17.7305 119.824 17.2064 119.254 16.7051H129.884C131.228 19.804 132.652 22.8802 134.156 25.9336L138.805 35.0254L148.785 53.3799C148.808 51.9443 148.819 50.4062 148.819 48.7656V43.4336C148.819 32.0404 148.124 23.8145 146.734 18.7559C146.461 17.8216 146.165 17.138 145.846 16.7051L156.134 16.6709C154.994 18.9495 154.277 25.3639 153.98 35.9141C153.935 37.5547 153.912 39.127 153.912 40.6309L153.946 43.502V57.4473C153.946 63.349 153.992 67.1999 154.083 69H148.546L138.634 50.543L128.312 31.7783ZM171.07 50.8848C170.774 53.2546 170.626 55.1458 170.626 56.5586C170.626 57.9486 170.797 59.236 171.139 60.4209C171.48 61.6058 171.97 62.6312 172.608 63.4971C173.976 65.3428 175.707 66.2656 177.804 66.2656C181.814 66.2656 183.819 64.0553 183.819 59.6348C183.819 56.0801 181.757 52.3089 177.633 48.3213L174.078 44.8691C170.956 41.8613 168.826 39.446 167.687 37.623C165.431 34.0228 164.303 30.4453 164.303 26.8906C164.303 23.9967 165.237 21.57 167.105 19.6104C169.361 17.2178 172.608 16.0215 176.847 16.0215C178.51 16.0215 179.763 16.1012 180.606 16.2607C182.179 16.557 183.227 16.7051 183.751 16.7051C185.073 16.7051 186.098 16.2949 186.827 15.4746C187.101 15.1784 187.397 14.791 187.716 14.3125C189.379 15.2467 190.211 18.6761 190.211 24.6006C190.211 28.3831 189.835 31.1745 189.083 32.9746C188.832 33.5898 188.548 33.9772 188.229 34.1367C187.864 30.696 186.747 27.6198 184.879 24.9082C182.691 21.7181 180.162 20.123 177.291 20.123C174.83 20.123 173.315 21.251 172.745 23.5068C172.586 24.1449 172.506 24.9424 172.506 25.8994C172.506 26.8337 172.791 27.9046 173.36 29.1123C173.93 30.32 174.671 31.5277 175.582 32.7354C176.516 33.9202 177.587 35.1165 178.795 36.3242C182.441 40.0612 184.856 42.5905 186.041 43.9121C187.249 45.2337 188.32 46.6009 189.254 48.0137C191.305 51.181 192.33 54.2458 192.33 57.208C192.33 60.7855 190.94 63.7477 188.16 66.0947C185.289 68.4873 181.598 69.6836 177.086 69.6836C173.349 69.6836 170.136 68.7493 167.447 66.8809C164.485 64.8301 163.004 62.1185 163.004 58.7461C163.893 55.5788 165.829 53.2546 168.814 51.7734C169.612 51.3633 170.364 51.0671 171.07 50.8848Z" fill="black"/>
    <path d="M13.0088 77.9507C13.2285 78.439 13.3384 78.9313 13.3384 79.4277C13.3384 79.9242 13.314 80.3351 13.2651 80.6606C13.2244 80.9862 13.1593 81.2995 13.0698 81.6006C12.8664 82.2842 12.5775 82.8091 12.2031 83.1753C11.9508 81.9139 11.6742 81.096 11.373 80.7217C11.0801 80.3473 10.783 80.0951 10.4819 79.9648C10.189 79.8346 9.87565 79.7695 9.54199 79.7695C9.20833 79.7695 8.93571 79.8021 8.72412 79.8672C8.51253 79.9323 8.32943 80.0259 8.1748 80.1479C7.82487 80.4165 7.6499 80.7217 7.6499 81.0635C7.6499 81.4053 7.73535 81.7023 7.90625 81.9546C8.07715 82.1987 8.30094 82.4307 8.57764 82.6504C8.86247 82.862 9.18392 83.0695 9.54199 83.2729L10.6406 83.8955C11.5846 84.4245 12.2316 84.8639 12.5815 85.2139C13.2733 85.9056 13.6191 86.634 13.6191 87.3989C13.6191 88.3999 13.2773 89.2422 12.5938 89.9258C11.7311 90.8047 10.4372 91.2441 8.71191 91.2441C7.14128 91.2441 5.96126 90.8779 5.17188 90.1455C4.94401 89.9339 4.78125 89.7223 4.68359 89.5107C4.7487 88.9004 5.02132 88.3267 5.50146 87.7896C5.96533 87.2687 6.41699 86.9676 6.85645 86.8862C6.82389 86.992 6.80762 87.1507 6.80762 87.3623C6.80762 87.5739 6.86865 87.8384 6.99072 88.1558C7.11279 88.465 7.28776 88.7539 7.51562 89.0225C8.02832 89.641 8.60612 89.9502 9.24902 89.9502C9.89193 89.9502 10.3639 89.8037 10.665 89.5107C10.9661 89.2178 11.1167 88.8841 11.1167 88.5098C11.1167 88.1354 11.0312 87.8221 10.8604 87.5698C10.6895 87.3175 10.4616 87.0815 10.1768 86.8618C9.90007 86.6421 9.58268 86.4305 9.22461 86.2271L8.12598 85.6045C7.1901 85.0511 6.5472 84.5791 6.19727 84.1885C5.4974 83.4072 5.14746 82.5568 5.14746 81.6372C5.14746 80.6688 5.55436 79.8835 6.36816 79.2812C7.14128 78.7116 8.10563 78.4268 9.26123 78.4268L11.4097 78.5732C11.9305 78.5732 12.2926 78.5122 12.4961 78.3901C12.6995 78.2599 12.8704 78.1134 13.0088 77.9507ZM19.9424 73.7881C19.7715 74.4147 19.686 75.1675 19.686 76.0464C19.686 76.9172 19.7023 77.4746 19.7349 77.7188C19.7756 77.9629 19.8366 78.1582 19.918 78.3047C20.0726 78.5488 20.3737 78.6709 20.8213 78.6709H24.0928C24.0928 79.1266 23.9829 79.4766 23.7632 79.7207C23.3644 80.1602 22.8761 80.3799 22.2983 80.3799C22.0135 80.3799 21.7612 80.3392 21.5415 80.2578C21.1427 80.0951 20.8335 80.0137 20.6138 80.0137C20.394 80.0137 20.215 80.0584 20.0767 80.1479C19.9383 80.2293 19.8285 80.3514 19.7471 80.5142C19.6006 80.8071 19.5273 81.446 19.5273 82.4307C19.5273 83.4154 19.5558 84.4245 19.6128 85.458C19.6779 86.4915 19.8325 87.3582 20.0767 88.0581C20.3208 88.7498 20.6911 89.2707 21.1875 89.6206C21.6839 89.9705 22.3675 90.1455 23.2383 90.1455C23.2383 90.3978 23.0674 90.6989 22.7256 91.0488C22.6361 91.1465 22.5588 91.2116 22.4937 91.2441C21.0532 91.2441 19.9749 91.0732 19.2588 90.7314C18.4368 90.3245 17.8509 89.6003 17.501 88.5586C17.151 87.5007 16.9761 85.9341 16.9761 83.8589C16.9761 82.0441 16.9272 80.974 16.8296 80.6484C16.7319 80.3148 16.6424 80.0951 16.561 79.9893C16.4634 79.8672 16.2274 79.7166 15.853 79.5376C16.3576 79.1551 16.8581 78.443 17.3545 77.4014L17.9648 76.1196C18.3962 75.1431 18.7624 74.5124 19.0635 74.2275C19.3727 73.9346 19.6657 73.7881 19.9424 73.7881ZM30.7822 79.6475C30.0498 79.6475 29.5208 80.0137 29.1953 80.7461C28.8779 81.4785 28.7192 82.7114 28.7192 84.4448C28.7192 88.1639 29.4069 90.0234 30.7822 90.0234C31.5146 90.0234 32.0396 89.527 32.3569 88.5342C32.6825 87.5413 32.8452 86.1782 32.8452 84.4448C32.8452 82.7114 32.6825 81.4785 32.3569 80.7461C32.0396 80.0137 31.5146 79.6475 30.7822 79.6475ZM25.6431 83.981C25.6431 80.2782 27.3561 78.4268 30.7822 78.4268C34.2083 78.4268 35.9214 80.2782 35.9214 83.981C35.9214 86.2271 35.4494 88.0052 34.5054 89.3154C33.5858 90.6012 32.3447 91.2441 30.7822 91.2441C29.2197 91.2441 27.9787 90.6012 27.0591 89.3154C26.1151 88.0052 25.6431 86.2271 25.6431 83.981ZM39.1562 91C39.5306 89.7142 39.7178 87.5047 39.7178 84.3716C39.7178 82.1418 39.5387 80.62 39.1807 79.8062C39.0342 79.4725 38.7738 79.0941 38.3994 78.6709H42.7329C42.5864 79.1836 42.4684 79.8875 42.3789 80.7827C43.1439 79.8224 44.21 79.1429 45.5771 78.7441C46.1631 78.5732 46.5903 78.3047 46.8589 77.9385C47.1274 78.5814 47.2617 79.1348 47.2617 79.5986C47.2617 80.0625 47.2373 80.4938 47.1885 80.8926C47.1396 81.2832 47.0664 81.6657 46.9688 82.04C46.7572 82.8457 46.4764 83.4723 46.1265 83.9199C45.8254 82.333 45.3574 81.4053 44.7227 81.1367C43.9902 80.8193 43.2741 81.2507 42.5742 82.4307C42.4277 82.6748 42.3057 82.9352 42.208 83.2119C42.1999 83.3991 42.1958 83.5903 42.1958 83.7856C42.1958 83.981 42.1958 84.1763 42.1958 84.3716C42.1958 87.5047 42.383 89.7142 42.7573 91H39.1562ZM57.4424 86.8496C57.7354 87.0449 57.8818 87.3867 57.8818 87.875C57.8818 88.3551 57.8167 88.7783 57.6865 89.1445C57.5563 89.5107 57.3285 89.8525 57.0029 90.1699C56.2705 90.8861 55.1556 91.2441 53.6582 91.2441C51.9167 91.2441 50.5902 90.6012 49.6787 89.3154C48.873 88.168 48.4702 86.6177 48.4702 84.6646C48.4702 82.6951 49.0155 81.1489 50.106 80.0259C51.1395 78.9598 52.5392 78.4268 54.3052 78.4268C55.534 78.4268 56.4943 78.7848 57.186 79.501C57.7313 80.0706 58.0039 80.7298 58.0039 81.4785C58.0039 82.2191 57.8574 82.8905 57.5645 83.4927C57.2796 84.0868 56.8564 84.5994 56.2949 85.0308C55.1393 85.9259 53.5239 86.3979 51.4487 86.4468C51.6196 88.0825 52.1323 89.1771 52.9868 89.7305C53.2961 89.9258 53.707 90.0234 54.2197 90.0234C54.7324 90.0234 55.2777 89.7549 55.8555 89.2178C56.4333 88.6807 56.9622 87.8913 57.4424 86.8496ZM51.3755 85.2871C53.9471 85.1162 55.2329 83.8711 55.2329 81.5518C55.2329 80.681 54.9725 80.0951 54.4517 79.7939C54.2726 79.6963 54.0366 79.6475 53.7437 79.6475C53.4507 79.6475 53.1536 79.737 52.8525 79.916C52.5596 80.0951 52.3032 80.388 52.0835 80.7949C51.6115 81.682 51.3755 83.0532 51.3755 84.9087V85.2871Z" fill="black"/>
    </g>
    <defs>
    <filter id="filter0_d_2_16" x="0.683594" y="14.3125" width="195.646" height="84.9316" filterUnits="userSpaceOnUse" color-interpolation-filters="sRGB">
    <feFlood flood-opacity="0" result="BackgroundImageFix"/>
    <feColorMatrix in="SourceAlpha" type="matrix" values="0 0 0 0 0 0 0 0 0 0 0 0 0 0 0 0 0 0 127 0" result="hardAlpha"/>
    <feOffset dy="4"/>
    <feGaussianBlur stdDeviation="2"/>
    <feComposite in2="hardAlpha" operator="out"/>
    <feColorMatrix type="matrix" values="0 0 0 0 0 0 0 0 0 0 0 0 0 0 0 0 0 0 0.25 0"/>
    <feBlend mode="normal" in2="BackgroundImageFix" result="effect1_dropShadow_2_16"/>
    <feBlend mode="normal" in="SourceGraphic" in2="effect1_dropShadow_2_16" result="shape"/>
    </filter>
    </defs>
</svg>